<svg width="36" height="37" viewBox="0 0 36 37" fill="none" xmlns="http://www.w3.org/2000/svg">
<path d="M26.9135 9.63315C22.032 4.7516 14.1174 4.7516 9.23587 9.63315C4.35432 14.5147 4.35432 22.4293 9.23587 27.3108C14.1174 32.1924 22.032 32.1924 26.9135 27.3108C31.7951 22.4293 31.7951 14.5147 26.9135 9.63315Z" stroke="black" stroke-miterlimit="10"/>
<path d="M19.2152 17.3317C18.5853 16.7018 17.5641 16.7018 16.9342 17.3317C16.3043 17.9616 16.3043 18.9828 16.9342 19.6127C17.5641 20.2426 18.5853 20.2426 19.2152 19.6127C19.8451 18.9828 19.8451 17.9616 19.2152 17.3317Z" stroke="black" stroke-miterlimit="10"/>
<path d="M18.0748 23.3105C20.7473 23.3108 27.7688 18.4722 27.7688 18.4722C27.7688 18.4722 20.7473 13.6331 18.0748 13.6334C15.4018 13.6337 13.236 15.8 13.236 18.4722C13.2357 21.1441 15.4021 23.311 18.0748 23.3105Z" stroke="black" stroke-miterlimit="10"/>
</svg>
