<svg width="36" height="36" viewBox="0 0 36 36" fill="none" xmlns="http://www.w3.org/2000/svg">
<path d="M8.8873 9.01761C4.00575 13.8992 4.00575 21.8137 8.8873 26.6953C13.7689 31.5768 21.6834 31.5768 26.565 26.6953C31.4465 21.8137 31.4465 13.8992 26.565 9.01761C21.6834 4.13606 13.7689 4.13606 8.8873 9.01761Z" stroke="black" stroke-miterlimit="10"/>
<path d="M16.5858 16.716C15.956 17.3458 15.956 18.3671 16.5858 18.9969C17.2157 19.6268 18.237 19.6268 18.8668 18.9969C19.4967 18.3671 19.4967 17.3458 18.8668 16.716C18.237 16.0861 17.2157 16.0861 16.5858 16.716Z" stroke="black" stroke-miterlimit="10"/>
<path d="M22.5646 17.8566C22.5649 15.1841 17.7264 8.16264 17.7264 8.16264C17.7264 8.16264 12.8872 15.1841 12.8875 17.8566C12.8878 20.5296 15.0542 22.6954 17.7264 22.6954C20.3983 22.6957 22.5652 20.5293 22.5646 17.8566Z" stroke="black" stroke-miterlimit="10"/>
</svg>
