<svg width="27" height="27" viewBox="0 0 27 27" fill="none" xmlns="http://www.w3.org/2000/svg">
<path d="M13.5037 1.20068C6.6001 1.20069 1.00366 6.79713 1.00366 13.7007C1.00366 20.6042 6.6001 26.2007 13.5037 26.2007C20.4072 26.2007 26.0037 20.6042 26.0037 13.7007C26.0037 6.79712 20.4072 1.20068 13.5037 1.20068Z" stroke="black" stroke-miterlimit="10"/>
<path d="M13.5036 12.0877C12.6128 12.0877 11.8906 12.8098 11.8906 13.7006C11.8906 14.5914 12.6128 15.3135 13.5036 15.3135C14.3943 15.3135 15.1165 14.5914 15.1165 13.7006C15.1165 12.8098 14.3943 12.0877 13.5036 12.0877Z" stroke="black" stroke-miterlimit="10"/>
<path d="M16.9249 17.1222C18.8148 15.2326 20.3584 6.84635 20.3584 6.84635C20.3584 6.84635 11.9717 8.38949 10.0822 10.2794C8.19227 12.1697 8.19267 15.233 10.0822 17.1226C11.9713 19.0121 15.0354 19.0125 16.9249 17.1222Z" stroke="black" stroke-miterlimit="10"/>
</svg>
