<svg width="27" height="27" viewBox="0 0 27 27" fill="none" xmlns="http://www.w3.org/2000/svg">
<path d="M1.01318 13.1528C1.01318 20.0564 6.60962 25.6528 13.5132 25.6528C20.4167 25.6528 26.0132 20.0564 26.0132 13.1528C26.0132 6.24927 20.4167 0.652832 13.5132 0.652831C6.60962 0.652831 1.01318 6.24927 1.01318 13.1528Z" stroke="black" stroke-miterlimit="10"/>
<path d="M11.9002 13.1529C11.9002 14.0437 12.6223 14.7658 13.5131 14.7658C14.4039 14.7658 15.126 14.0437 15.126 13.1529C15.126 12.2622 14.4039 11.54 13.5131 11.54C12.6223 11.54 11.9002 12.2622 11.9002 13.1529Z" stroke="black" stroke-miterlimit="10"/>
<path d="M16.9347 9.73132C15.0451 7.8414 6.65885 6.29785 6.65885 6.29785C6.65885 6.29785 8.20199 14.6845 10.0919 16.5741C11.9822 18.464 15.0455 18.4636 16.9351 16.5741C18.8246 14.6849 18.825 11.6208 16.9347 9.73132Z" stroke="black" stroke-miterlimit="10"/>
</svg>
