<svg width="21" height="27" viewBox="0 0 21 27" fill="none" xmlns="http://www.w3.org/2000/svg">
<path d="M11.6798 1.66667C11.6798 0.744792 10.9351 0 10.0132 0C9.09131 0 8.34652 0.744792 8.34652 1.66667V7.5H2.51318C1.59131 7.5 0.846517 8.24479 0.846517 9.16667C0.846517 10.0885 1.59131 10.8333 2.51318 10.8333H8.34652V16.6667C8.34652 17.5885 9.09131 18.3333 10.0132 18.3333C10.9351 18.3333 11.6798 17.5885 11.6798 16.6667V10.8333H17.5132C18.4351 10.8333 19.1798 10.0885 19.1798 9.16667C19.1798 8.24479 18.4351 7.5 17.5132 7.5H11.6798V1.66667ZM0.0131836 25C0.0131836 25.9219 0.757975 26.6667 1.67985 26.6667H18.3465C19.2684 26.6667 20.0132 25.9219 20.0132 25C20.0132 24.0781 19.2684 23.3333 18.3465 23.3333H1.67985C0.757975 23.3333 0.0131836 24.0781 0.0131836 25Z" fill="#0E5CC4"/>
</svg>
