<svg width="36" height="37" viewBox="0 0 36 37" fill="none" xmlns="http://www.w3.org/2000/svg">
<path d="M27.1615 27.4897C32.0431 22.6082 32.0431 14.6936 27.1615 9.81204C22.28 4.93049 14.3654 4.93049 9.48385 9.81204C4.6023 14.6936 4.6023 22.6082 9.48385 27.4897C14.3654 32.3713 22.28 32.3713 27.1615 27.4897Z" stroke="black" stroke-miterlimit="10"/>
<path d="M19.463 19.7914C20.0929 19.1615 20.0929 18.1403 19.463 17.5104C18.8331 16.8805 17.8119 16.8805 17.182 17.5104C16.5521 18.1403 16.5521 19.1615 17.182 19.7914C17.8119 20.4213 18.8331 20.4213 19.463 19.7914Z" stroke="black" stroke-miterlimit="10"/>
<path d="M13.4842 18.651C13.4839 21.3235 18.3225 28.3449 18.3225 28.3449C18.3225 28.3449 23.1616 21.3235 23.1613 18.651C23.161 15.978 20.9947 13.8122 18.3225 13.8122C15.6506 13.8119 13.4836 15.9783 13.4842 18.651Z" stroke="black" stroke-miterlimit="10"/>
</svg>
