<svg width="27" height="27" viewBox="0 0 27 27" fill="none" xmlns="http://www.w3.org/2000/svg">
<path d="M26.2019 13.3545C26.2019 6.45093 20.6055 0.854491 13.7019 0.854492C6.79834 0.854492 1.2019 6.45093 1.2019 13.3545C1.2019 20.2581 6.79835 25.8545 13.7019 25.8545C20.6055 25.8545 26.2019 20.2581 26.2019 13.3545Z" stroke="black" stroke-miterlimit="10"/>
<path d="M15.3149 13.3544C15.3149 12.4636 14.5928 11.7415 13.702 11.7415C12.8112 11.7415 12.0891 12.4636 12.0891 13.3544C12.0891 14.2452 12.8112 14.9673 13.702 14.9673C14.5928 14.9673 15.3149 14.2452 15.3149 13.3544Z" stroke="black" stroke-miterlimit="10"/>
<path d="M10.2804 16.7758C12.17 18.6657 20.5562 20.2092 20.5562 20.2092C20.5562 20.2092 19.0131 11.8225 17.1232 9.93302C15.2329 8.0431 12.1695 8.0435 10.28 9.93302C8.39051 11.8221 8.39011 14.8862 10.2804 16.7758Z" stroke="black" stroke-miterlimit="10"/>
</svg>
