<svg width="31" height="31" viewBox="0 0 31 31" fill="none" xmlns="http://www.w3.org/2000/svg">
<path fill-rule="evenodd" clip-rule="evenodd" d="M4.43605 25.0174C4.43605 24.7399 4.5463 24.4737 4.74256 24.2774C4.93882 24.0812 5.20501 23.9709 5.48256 23.9709H25.0174C25.295 23.9709 25.5612 24.0812 25.7574 24.2774C25.9537 24.4737 26.064 24.7399 26.064 25.0174C26.064 25.295 25.9537 25.5612 25.7574 25.7574C25.5612 25.9537 25.295 26.064 25.0174 26.064H5.48256C5.20501 26.064 4.93882 25.9537 4.74256 25.7574C4.5463 25.5612 4.43605 25.295 4.43605 25.0174ZM8.62209 29.2035C8.62209 28.9259 8.73235 28.6598 8.92861 28.4635C9.12487 28.2672 9.39105 28.157 9.6686 28.157H20.8314C21.1089 28.157 21.3751 28.2672 21.5714 28.4635C21.7676 28.6598 21.8779 28.9259 21.8779 29.2035C21.8779 29.481 21.7676 29.7472 21.5714 29.9435C21.3751 30.1397 21.1089 30.25 20.8314 30.25H9.6686C9.39105 30.25 9.12487 30.1397 8.92861 29.9435C8.73235 29.7472 8.62209 29.481 8.62209 29.2035ZM15.25 0.25C15.5276 0.25 15.7937 0.360257 15.99 0.556516C16.1863 0.752775 16.2965 1.01896 16.2965 1.29651V2.69186C16.2965 2.96941 16.1863 3.2356 15.99 3.43186C15.7937 3.62811 15.5276 3.73837 15.25 3.73837C14.9724 3.73837 14.7063 3.62811 14.51 3.43186C14.3137 3.2356 14.2035 2.96941 14.2035 2.69186V1.29651C14.2035 1.01896 14.3137 0.752775 14.51 0.556516C14.7063 0.360257 14.9724 0.25 15.25 0.25ZM4.64395 4.64395C4.84017 4.44798 5.10616 4.3379 5.38349 4.3379C5.66081 4.3379 5.9268 4.44798 6.12302 4.64395L6.6714 5.19093C6.86212 5.38821 6.96773 5.65252 6.96548 5.92691C6.96322 6.2013 6.85328 6.46384 6.65934 6.65796C6.4654 6.85208 6.20297 6.96227 5.92858 6.96478C5.65419 6.96729 5.38979 6.86193 5.19233 6.6714L4.64395 6.12302C4.44798 5.9268 4.3379 5.66081 4.3379 5.38349C4.3379 5.10616 4.44798 4.84017 4.64395 4.64395ZM25.856 4.64395C26.052 4.84017 26.1621 5.10616 26.1621 5.38349C26.1621 5.66081 26.052 5.9268 25.856 6.12302L25.3077 6.6714C25.1093 6.85625 24.8469 6.95689 24.5758 6.9521C24.3047 6.94732 24.046 6.83749 23.8542 6.64575C23.6625 6.45401 23.5527 6.19534 23.5479 5.92422C23.5431 5.6531 23.6437 5.39071 23.8286 5.19233L24.377 4.64395C24.5732 4.44798 24.8392 4.3379 25.1165 4.3379C25.3938 4.3379 25.6598 4.44798 25.856 4.64395ZM0.25 15.25C0.25 14.9724 0.360257 14.7063 0.556516 14.51C0.752775 14.3137 1.01896 14.2035 1.29651 14.2035H2.69186C2.96941 14.2035 3.2356 14.3137 3.43186 14.51C3.62811 14.7063 3.73837 14.9724 3.73837 15.25C3.73837 15.5276 3.62811 15.7937 3.43186 15.99C3.2356 16.1863 2.96941 16.2965 2.69186 16.2965H1.29651C1.01896 16.2965 0.752775 16.1863 0.556516 15.99C0.360257 15.7937 0.25 15.5276 0.25 15.25ZM26.7616 15.25C26.7616 14.9724 26.8719 14.7063 27.0681 14.51C27.2644 14.3137 27.5306 14.2035 27.8081 14.2035H29.2035C29.481 14.2035 29.7472 14.3137 29.9435 14.51C30.1397 14.7063 30.25 14.9724 30.25 15.25C30.25 15.5276 30.1397 15.7937 29.9435 15.99C29.7472 16.1863 29.481 16.2965 29.2035 16.2965H27.8081C27.5306 16.2965 27.2644 16.1863 27.0681 15.99C26.8719 15.7937 26.7616 15.5276 26.7616 15.25Z" fill="#FFD233"/>
<path d="M5.8314 15.25C5.8314 16.8937 6.25279 18.4398 6.99372 19.7849H1.29651C1.01896 19.7849 0.752775 19.8951 0.556516 20.0914C0.360257 20.2877 0.25 20.5539 0.25 20.8314C0.25 21.109 0.360257 21.3751 0.556516 21.5714C0.752775 21.7677 1.01896 21.8779 1.29651 21.8779H14.2035V14.9849L13.1988 15.9895C13.103 16.0924 12.9875 16.1748 12.8591 16.232C12.7308 16.2892 12.5922 16.32 12.4517 16.3225C12.3111 16.3249 12.1716 16.2991 12.0413 16.2465C11.9109 16.1938 11.7926 16.1155 11.6932 16.0161C11.5938 15.9167 11.5155 15.7984 11.4629 15.6681C11.4102 15.5377 11.3844 15.3982 11.3868 15.2577C11.3893 15.1171 11.4201 14.9786 11.4773 14.8502C11.5345 14.7218 11.6169 14.6063 11.7198 14.5105L14.5105 11.7198C14.7067 11.5238 14.9727 11.4137 15.25 11.4137C15.5273 11.4137 15.7933 11.5238 15.9895 11.7198L18.7802 14.5105C18.8831 14.6063 18.9655 14.7218 19.0227 14.8502C19.0799 14.9786 19.1107 15.1171 19.1132 15.2577C19.1156 15.3982 19.0898 15.5377 19.0371 15.6681C18.9845 15.7984 18.9062 15.9167 18.8068 16.0161C18.7074 16.1155 18.589 16.1938 18.4587 16.2465C18.3284 16.2991 18.1889 16.3249 18.0483 16.3225C17.9078 16.32 17.7692 16.2892 17.6409 16.232C17.5125 16.1748 17.397 16.0924 17.3012 15.9895L16.2965 14.9849V21.8779H29.2035C29.481 21.8779 29.7472 21.7677 29.9435 21.5714C30.1397 21.3751 30.25 21.109 30.25 20.8314C30.25 20.5539 30.1397 20.2877 29.9435 20.0914C29.7472 19.8951 29.481 19.7849 29.2035 19.7849H23.5063C24.1973 18.5261 24.5914 17.1259 24.6584 15.6914C24.7253 14.257 24.4634 12.8262 23.8925 11.5085C23.3217 10.1907 22.4571 9.02101 21.3649 8.08868C20.2727 7.15635 18.9817 6.48613 17.5907 6.12924C16.1998 5.77235 14.7456 5.73826 13.3394 6.02956C11.9332 6.32087 10.6123 6.92986 9.47755 7.80997C8.34283 8.69008 7.42438 9.81801 6.79243 11.1075C6.16047 12.397 5.83175 13.814 5.8314 15.25Z" fill="#FFD233"/>
</svg>
