<svg width="31" height="31" viewBox="0 0 31 31" fill="none" xmlns="http://www.w3.org/2000/svg">
<path fill-rule="evenodd" clip-rule="evenodd" d="M4.61647 25.0633C4.61647 24.7858 4.72672 24.5196 4.92298 24.3233C5.11924 24.1271 5.38543 24.0168 5.66298 24.0168H25.1979C25.4754 24.0168 25.7416 24.1271 25.9379 24.3233C26.1341 24.5196 26.2444 24.7858 26.2444 25.0633C26.2444 25.3409 26.1341 25.6071 25.9379 25.8033C25.7416 25.9996 25.4754 26.1099 25.1979 26.1099H5.66298C5.38543 26.1099 5.11924 25.9996 4.92298 25.8033C4.72672 25.6071 4.61647 25.3409 4.61647 25.0633ZM8.80251 29.2494C8.80251 28.9718 8.91277 28.7056 9.10903 28.5094C9.30529 28.3131 9.57147 28.2029 9.84902 28.2029H21.0118C21.2894 28.2029 21.5556 28.3131 21.7518 28.5094C21.9481 28.7056 22.0583 28.9718 22.0583 29.2494C22.0583 29.5269 21.9481 29.7931 21.7518 29.9894C21.5556 30.1856 21.2894 30.2959 21.0118 30.2959H9.84902C9.57147 30.2959 9.30529 30.1856 9.10903 29.9894C8.91277 29.7931 8.80251 29.5269 8.80251 29.2494ZM15.4304 0.295898C15.708 0.295898 15.9742 0.406156 16.1704 0.602415C16.3667 0.798674 16.4769 1.06486 16.4769 1.34241V2.73776C16.4769 3.01531 16.3667 3.2815 16.1704 3.47775C15.9742 3.67401 15.708 3.78427 15.4304 3.78427C15.1529 3.78427 14.8867 3.67401 14.6904 3.47775C14.4942 3.2815 14.3839 3.01531 14.3839 2.73776V1.34241C14.3839 1.06486 14.4942 0.798674 14.6904 0.602415C14.8867 0.406156 15.1529 0.295898 15.4304 0.295898ZM4.82437 4.68985C5.02059 4.49387 5.28658 4.3838 5.56391 4.3838C5.84123 4.3838 6.10722 4.49387 6.30344 4.68985L6.85182 5.23683C7.04254 5.43411 7.14815 5.69841 7.1459 5.97281C7.14364 6.2472 7.0337 6.50973 6.83976 6.70386C6.64582 6.89798 6.38339 7.00817 6.109 7.01068C5.83461 7.01319 5.57021 6.90783 5.37275 6.71729L4.82437 6.16892C4.6284 5.9727 4.51832 5.70671 4.51832 5.42939C4.51832 5.15206 4.6284 4.88607 4.82437 4.68985ZM26.0365 4.68985C26.2324 4.88607 26.3425 5.15206 26.3425 5.42939C26.3425 5.70671 26.2324 5.9727 26.0365 6.16892L25.4881 6.71729C25.2897 6.90215 25.0273 7.00279 24.7562 6.998C24.4851 6.99322 24.2264 6.88339 24.0347 6.69165C23.8429 6.49991 23.7331 6.24123 23.7283 5.97012C23.7235 5.699 23.8242 5.43661 24.009 5.23822L24.5574 4.68985C24.7536 4.49387 25.0196 4.3838 25.2969 4.3838C25.5743 4.3838 25.8402 4.49387 26.0365 4.68985ZM0.43042 15.2959C0.43042 15.0183 0.540677 14.7522 0.736936 14.5559C0.933195 14.3596 1.19938 14.2494 1.47693 14.2494H2.87228C3.14983 14.2494 3.41602 14.3596 3.61228 14.5559C3.80853 14.7522 3.91879 15.0183 3.91879 15.2959C3.91879 15.5735 3.80853 15.8396 3.61228 16.0359C3.41602 16.2322 3.14983 16.3424 2.87228 16.3424H1.47693C1.19938 16.3424 0.933195 16.2322 0.736936 16.0359C0.540677 15.8396 0.43042 15.5735 0.43042 15.2959ZM26.942 15.2959C26.942 15.0183 27.0523 14.7522 27.2486 14.5559C27.4448 14.3596 27.711 14.2494 27.9886 14.2494H29.3839C29.6615 14.2494 29.9276 14.3596 30.1239 14.5559C30.3202 14.7522 30.4304 15.0183 30.4304 15.2959C30.4304 15.5735 30.3202 15.8396 30.1239 16.0359C29.9276 16.2322 29.6615 16.3424 29.3839 16.3424H27.9886C27.711 16.3424 27.4448 16.2322 27.2486 16.0359C27.0523 15.8396 26.942 15.5735 26.942 15.2959Z" fill="#FFD233"/>
<path d="M6.01182 15.2959C6.01182 16.9396 6.43321 18.4857 7.17414 19.8308H1.47693C1.19938 19.8308 0.933195 19.941 0.736936 20.1373C0.540677 20.3336 0.43042 20.5997 0.43042 20.8773C0.43042 21.1548 0.540677 21.421 0.736936 21.6173C0.933195 21.8135 1.19938 21.9238 1.47693 21.9238H29.3839C29.6615 21.9238 29.9276 21.8135 30.1239 21.6173C30.3202 21.421 30.4304 21.1548 30.4304 20.8773C30.4304 20.5997 30.3202 20.3336 30.1239 20.1373C29.9276 19.941 29.6615 19.8308 29.3839 19.8308H23.6867C24.4317 18.4742 24.831 16.955 24.8493 15.4075C24.8676 13.8599 24.5043 12.3317 23.7916 10.9579C23.0788 9.58415 22.0386 8.40715 20.7628 7.53099C19.487 6.65483 18.015 6.10651 16.4769 5.9345V12.7689L17.4816 11.7643C17.5782 11.6644 17.6937 11.5847 17.8214 11.5299C17.9491 11.4751 18.0864 11.4463 18.2254 11.4452C18.3643 11.444 18.5021 11.4706 18.6307 11.5233C18.7593 11.5759 18.8761 11.6537 18.9743 11.752C19.0725 11.8503 19.1502 11.9672 19.2027 12.0958C19.2553 12.2245 19.2817 12.3623 19.2804 12.5012C19.2792 12.6402 19.2502 12.7775 19.1953 12.9052C19.1404 13.0328 19.0606 13.1482 18.9607 13.2447L16.17 16.0354C15.9737 16.2314 15.7077 16.3415 15.4304 16.3415C15.1531 16.3415 14.8871 16.2314 14.6909 16.0354L11.9002 13.2447C11.7974 13.1489 11.7149 13.0334 11.6577 12.905C11.6005 12.7766 11.5697 12.6381 11.5673 12.4976C11.5648 12.357 11.5906 12.2175 11.6433 12.0872C11.6959 11.9568 11.7742 11.8385 11.8736 11.7391C11.973 11.6397 12.0914 11.5614 12.2217 11.5087C12.352 11.4561 12.4916 11.4303 12.6321 11.4327C12.7726 11.4352 12.9112 11.466 13.0395 11.5232C13.1679 11.5804 13.2834 11.6628 13.3793 11.7657L14.3839 12.7703V5.93311C12.0814 6.19084 9.95467 7.28807 8.41019 9.01505C6.86571 10.742 6.01185 12.9776 6.01182 15.2945" fill="#FFD233"/>
</svg>
