<svg width="27" height="27" viewBox="0 0 27 27" fill="none" xmlns="http://www.w3.org/2000/svg">
<path d="M13.5 25.999C20.4036 25.999 26 20.4026 26 13.499C26 6.59546 20.4036 0.999023 13.5 0.999023C6.59644 0.999023 1 6.59546 1 13.499C1 20.4026 6.59644 25.999 13.5 25.999Z" stroke="black" stroke-miterlimit="10"/>
<path d="M13.5001 15.112C14.3909 15.112 15.113 14.3899 15.113 13.4991C15.113 12.6084 14.3909 11.8862 13.5001 11.8862C12.6093 11.8862 11.8872 12.6084 11.8872 13.4991C11.8872 14.3899 12.6093 15.112 13.5001 15.112Z" stroke="black" stroke-miterlimit="10"/>
<path d="M10.0785 10.0776C8.18857 11.9671 6.64502 20.3534 6.64502 20.3534C6.64502 20.3534 15.0317 18.8102 16.9212 16.9203C18.8111 15.03 18.8107 11.9667 16.9212 10.0772C15.0321 8.18763 11.968 8.18723 10.0785 10.0776Z" stroke="black" stroke-miterlimit="10"/>
</svg>
