<svg width="37" height="36" viewBox="0 0 37 36" fill="none" xmlns="http://www.w3.org/2000/svg">
<path d="M9.63968 26.5165C14.5212 31.3981 22.4358 31.3981 27.3174 26.5165C32.1989 21.635 32.1989 13.7204 27.3174 8.83883C22.4358 3.95728 14.5212 3.95728 9.63968 8.83883C4.75813 13.7204 4.75813 21.635 9.63968 26.5165Z" stroke="black" stroke-miterlimit="10"/>
<path d="M17.338 18.8182C17.9679 19.4481 18.9891 19.4481 19.619 18.8182C20.2489 18.1883 20.2489 17.1671 19.619 16.5372C18.9891 15.9073 17.9679 15.9073 17.338 16.5372C16.7081 17.1671 16.7081 18.1883 17.338 18.8182Z" stroke="black" stroke-miterlimit="10"/>
<path d="M18.4786 12.8392C15.8062 12.8389 8.78471 17.6775 8.78471 17.6775C8.78471 17.6775 15.8062 22.5166 18.4786 22.5163C21.1517 22.516 23.3175 20.3496 23.3175 17.6775C23.3177 15.0056 21.1514 12.8386 18.4786 12.8392Z" stroke="black" stroke-miterlimit="10"/>
</svg>
