<svg width="17" height="17" viewBox="0 0 17 17" fill="none" xmlns="http://www.w3.org/2000/svg">
<path d="M10.1545 17C10.7386 17 11.1521 16.4973 11.4521 15.7182L16.7647 1.83365C16.9107 1.46041 17 1.12768 17 0.851731C17 0.324419 16.6674 0 16.1401 0C15.8643 0 15.5317 0.0810183 15.1587 0.227128L1.20875 5.57434C0.527032 5.83401 0 6.24776 0 6.84016C0 7.58664 0.567866 7.83835 1.34648 8.07379L5.73438 9.40436C6.24515 9.56709 6.53721 9.55047 6.88603 9.22605L15.7829 0.908167C15.8885 0.810876 16.0103 0.827149 16.0916 0.900204C16.1726 0.981222 16.1806 1.1031 16.0833 1.20835L7.80237 10.1429C7.49438 10.4756 7.46185 10.7515 7.62415 11.2951L8.90557 15.5798C9.14884 16.3993 9.40042 17 10.1548 17" fill="black"/>
</svg>
